<svg xmlns="http://www.w3.org/2000/svg" width="256" height="256" viewBox="0 0 256 256">
  <defs>
    <linearGradient id="g" x1="0" y1="0" x2="1" y2="1">
      <stop offset="0" stop-color="#fb7185"/>
      <stop offset="1" stop-color="#f472b6"/>
    </linearGradient>
    <filter id="s" x="-20%" y="-20%" width="140%" height="140%">
      <feDropShadow dx="0" dy="8" stdDeviation="10" flood-color="#000" flood-opacity="0.25"/>
    </filter>
  </defs>
  <rect x="0" y="0" width="256" height="256" rx="40" fill="url(#g)"/>
  <circle cx="128" cy="128" r="84" fill="#ffffff" fill-opacity="0.18"/>
  <circle cx="128" cy="128" r="62" fill="#ffffff" fill-opacity="0.18"/>
  <g filter="url(#s)">
    <path fill="#ffffff" d="M156 74a8 8 0 0 1 8 8v84.8c0 17.8-14.4 32.2-32.2 32.2S100 184.6 100 166.8 114.4 134.6 132.2 134.6c5.4 0 10.6 1.4 15 3.9V108l-37.1 9.9a8 8 0 0 1-10-7.7V92.4a8 8 0 0 1 5.9-7.7l48-12.8c.7-.2 1.4-.3 2.1-.3Z"/>
  </g>
</svg>
